# xmcd CD database file
#
# Track frame offsets:
#	150
#	13371
#	31621
#	48871
#	91379
#	118767
#	164935
#	203732
#	249539
#	266708
#	284793
#
# Disc length: 3851 seconds
#
# Revision: 1
# Processed by: cddbd v1.5.2PL0 Copyright (c) Steve Scherf et al.
# Submitted via: CDex 1.70beta3
#
DISCID=a30f090b
DTITLE=Various Artist - Tales of Graces Vol. 2 -水の中の光を掴んで-
DYEAR=2010
DGENRE=Game
TTITLE0=王都の叛乱
TTITLE1=脱出
TTITLE2=祈りのゆくえ
TTITLE3=思わぬ同行者
TTITLE4=風に導かれて
TTITLE5=師弟相撃つ
TTITLE6=彼は昔の彼ならず
TTITLE7=黒い炎
TTITLE8=大煇石
TTITLE9=囚われのシェリア
TTITLE10=[Secret Track]
EXTD=YEAR: 2010
EXTT0=
EXTT1=
EXTT2=
EXTT3=
EXTT4=
EXTT5=
EXTT6=
EXTT7=
EXTT8=
EXTT9=
EXTT10=
PLAYORDER=
